<?xml version="1.0" standalone="no"?>
<!DOCTYPE svg PUBLIC "-//W3C//DTD SVG 20010904//EN"
 "http://www.w3.org/TR/2001/REC-SVG-20010904/DTD/svg10.dtd">
<svg version="1.0" xmlns="http://www.w3.org/2000/svg"
 width="300.000000pt" height="169.000000pt" viewBox="0 0 300.000000 169.000000"
 preserveAspectRatio="xMidYMid meet">
<metadata>
Created by potrace 1.10, written by Peter Selinger 2001-2011
</metadata>
<g transform="translate(0.000000,169.000000) scale(0.100000,-0.100000)"
fill="#000000" stroke="none">
<path d="M2426 1088 c-32 -4 -78 -18 -101 -32 l-44 -24 -22 24 -22 24 -244 0
c-154 0 -252 -4 -264 -11 -13 -6 -25 -7 -32 -1 -23 18 -62 21 -100 7 -31 -11
-44 -10 -80 2 -56 20 -144 12 -199 -19 l-43 -23 -23 23 c-22 22 -26 23 -245
24 -122 0 -243 1 -269 2 -38 1 -53 -5 -87 -32 -23 -18 -41 -28 -41 -23 0 6
-10 19 -22 31 -20 18 -35 20 -149 20 -113 0 -129 -2 -153 -21 -20 -16 -26 -29
-26 -61 0 -24 7 -49 16 -59 10 -11 27 -78 44 -171 37 -202 37 -201 71 -234 36
-34 98 -39 140 -11 14 9 61 78 105 152 43 73 85 134 92 134 16 1 15 -2 -8 -77
-11 -35 -29 -71 -40 -80 -11 -10 -23 -33 -26 -53 -5 -29 -1 -41 19 -65 l25
-29 211 0 c143 0 214 4 221 11 9 9 19 8 41 -3 30 -15 82 -11 106 9 7 6 30 4
64 -6 67 -20 111 -20 180 0 108 32 181 152 149 248 -14 43 -1 71 22 48 7 -7
29 -12 49 -12 l37 0 -14 -37 c-7 -21 -13 -45 -14 -54 0 -9 -13 -33 -30 -54
-38 -48 -40 -92 -4 -126 23 -21 36 -24 127 -27 161 -6 217 24 203 110 -4 26 1
66 16 121 12 45 23 83 24 85 1 2 11 -1 22 -7 18 -9 19 -18 15 -71 -10 -105 40
-191 133 -226 67 -26 203 -16 272 20 118 60 193 180 200 321 3 70 1 86 -20
125 -46 85 -150 125 -282 108z m165 -85 c56 -32 74 -67 73 -136 -2 -177 -154
-321 -320 -304 -106 11 -154 60 -154 159 0 141 93 265 225 299 47 12 142 3
176 -18z m-2046 7 c3 -6 1 -25 -5 -43 -8 -24 -7 -51 3 -107 l13 -75 49 89 c65
116 93 146 137 146 43 0 71 -28 71 -70 0 -54 -51 -89 -96 -65 -24 12 -26 10
-111 -135 -47 -81 -94 -154 -104 -163 -23 -21 -56 -22 -71 -3 -7 8 -27 93 -44
189 -23 123 -38 181 -51 196 -37 40 -16 51 98 51 60 0 108 -4 111 -10z m669
-6 c20 -19 20 -19 1 -82 -23 -77 -74 -82 -93 -8 -8 28 -12 31 -55 34 l-46 3
-15 -52 c-9 -29 -16 -56 -16 -61 0 -15 23 -8 56 17 37 28 47 30 62 13 14 -17
-23 -134 -44 -142 -19 -7 -41 8 -49 35 -4 10 -15 19 -25 19 -14 0 -22 -11 -30
-42 -6 -24 -15 -56 -20 -72 -6 -16 -10 -31 -10 -32 0 -2 16 -4 35 -4 29 0 46
9 84 45 56 52 101 62 101 21 0 -32 -28 -108 -43 -118 -20 -13 -387 -10 -387 3
0 6 10 23 23 38 32 39 115 336 100 361 -22 35 3 40 183 40 144 0 175 -3 188
-16z m316 0 c37 -15 42 -15 66 1 32 21 68 16 72 -10 1 -11 -5 -45 -15 -75 -24
-75 -49 -78 -107 -16 -33 36 -49 46 -74 46 -66 0 -52 -46 28 -95 107 -65 133
-123 92 -205 -37 -75 -172 -106 -263 -60 l-40 21 -26 -21 c-30 -23 -71 -26
-79 -5 -9 23 35 144 57 156 17 9 28 3 74 -46 47 -49 59 -56 87 -53 27 2 34 8
36 29 3 22 -6 32 -62 67 -101 63 -128 126 -87 202 38 72 148 101 241 64z m689
3 c8 -10 7 -27 -4 -65 -30 -100 -75 -108 -113 -19 -6 15 -19 27 -29 27 -25 0
-113 -312 -95 -340 19 -31 -5 -40 -114 -40 -113 0 -134 10 -92 44 20 17 35 53
70 179 39 140 42 157 27 157 -10 0 -38 -20 -62 -45 -47 -48 -67 -54 -87 -30
-10 12 -10 25 0 62 21 85 13 83 265 83 174 0 225 -3 234 -13z m-1599 -24 c0
-18 -31 -73 -42 -73 -11 0 -10 44 2 74 10 27 40 27 40 -1z m1048 -139 c-14 -7
-28 -21 -32 -29 -3 -9 -11 -13 -17 -10 -6 5 2 18 23 35 18 15 37 26 42 23 5
-3 -3 -12 -16 -19z m-420 -21 c12 -39 9 -53 -13 -53 -7 0 -23 -12 -34 -26
l-21 -27 -28 28 c-24 25 -24 27 -4 16 28 -15 59 -6 73 22 10 17 8 24 -10 38
-20 17 -20 18 -4 28 27 15 29 14 41 -26z m568 1 c-7 -26 -8 -26 -24 -10 -16
16 -16 18 2 32 25 18 30 12 22 -22z m-616 -34 c-30 -23 -40 -25 -40 -6 0 14
18 23 50 25 9 0 6 -7 -10 -19z"/>
<path d="M2431 934 c-55 -70 -99 -304 -59 -312 31 -6 65 42 93 129 15 46 29
112 32 147 6 61 5 62 -20 62 -16 0 -34 -10 -46 -26z m26 -77 c-7 -51 -46 -157
-58 -157 -15 0 -10 36 12 102 37 107 56 130 46 55z"/>
</g>
</svg>
